<?xml version="1.0" encoding="UTF-8" standalone="no"?>
<svg
   xmlns:dc="http://purl.org/dc/elements/1.1/"
   xmlns:cc="http://creativecommons.org/ns#"
   xmlns:rdf="http://www.w3.org/1999/02/22-rdf-syntax-ns#"
   xmlns:svg="http://www.w3.org/2000/svg"
   xmlns="http://www.w3.org/2000/svg"
   xmlns:sodipodi="http://sodipodi.sourceforge.net/DTD/sodipodi-0.dtd"
   xmlns:inkscape="http://www.inkscape.org/namespaces/inkscape"
   version="1.0"
   width="750px"
   height="190px"
   xml:space="preserve"
   id="svg229"
   sodipodi:docname="Aperture_Linux.svg"
   inkscape:version="1.0.2 (e86c870879, 2021-01-15, custom)"><metadata
   id="metadata235"><rdf:RDF><cc:Work
       rdf:about=""><dc:format>image/svg+xml</dc:format><dc:type
         rdf:resource="http://purl.org/dc/dcmitype/StillImage" /><dc:title /></cc:Work></rdf:RDF></metadata><defs
   id="defs233"><rect
   x="204.71887"
   y="-39.229624"
   width="315.22684"
   height="45.765528"
   id="rect253" />
	
	
	
	
	
	
	
	
	
	
	
	
</defs><sodipodi:namedview
   pagecolor="#ffffff"
   bordercolor="#666666"
   borderopacity="1"
   objecttolerance="10"
   gridtolerance="10"
   guidetolerance="10"
   inkscape:pageopacity="0"
   inkscape:pageshadow="2"
   inkscape:window-width="2560"
   inkscape:window-height="1369"
   id="namedview231"
   showgrid="false"
   inkscape:snap-to-guides="false"
   inkscape:zoom="8.8397778"
   inkscape:cx="299.49983"
   inkscape:cy="127.10544"
   inkscape:window-x="0"
   inkscape:window-y="0"
   inkscape:window-maximized="1"
   inkscape:current-layer="svg229"
   inkscape:document-rotation="0" />
<g
   id="g171"
   style="fill:#000000">
	<path
   d="M190.309,114.353h-23.207l-5.119,10.979H141.11l36.345-66.51h22.297l13.384,66.51h-21.408L190.309,114.353z    M188.552,99.971l-3.174-23.91l-11.353,23.91H188.552z"
   id="path155"
   style="fill:#000000" />
	<path
   d="M237.768,58.822h33.985c7.404,0,12.638,1.767,15.717,5.307c3.07,3.536,4.045,8.576,2.92,15.107  c-1.161,6.715-4.077,11.963-8.744,15.744c-4.671,3.781-11.125,5.671-19.371,5.671h-11.191l-4.261,24.681h-20.533L237.768,58.822z    M253.413,87.177h5.008c3.942,0,6.823-0.69,8.658-2.063c1.832-1.376,2.933-3.138,3.302-5.288   c0.361-2.086-0.024-3.857-1.155-5.307c-1.135-1.455-3.615-2.179-7.434-2.179h-5.824L253.413,87.177z"
   id="path157"
   style="fill:#000000" />
	<path
   d="M309.063,58.822h54.788l-2.451,14.2h-34.301l-1.818,10.57h31.813l-2.341,13.561h-31.817l-2.262,13.117h35.295   l-2.602,15.062h-55.785L309.063,58.822z"
   id="path159"
   style="fill:#000000" />
	<path
   d="M371.307,125.332l11.48-66.51h34.075c6.317,0,11.054,0.541,14.204,1.63c3.154,1.093,5.495,3.109,7.031,6.053   c1.538,2.952,1.939,6.547,1.214,10.776c-0.643,3.696-1.976,6.878-3.997,9.557c-2.028,2.675-4.56,4.845-7.584,6.505   c-1.929,1.061-4.47,1.939-7.632,2.637c2.292,0.816,3.925,1.634,4.896,2.448c0.66,0.546,1.547,1.71,2.668,3.5   c1.12,1.783,1.838,3.164,2.153,4.132l6.574,19.272h-23.101l-7.423-20.326c-0.929-2.63-1.865-4.336-2.816-5.125   c-1.295-1.029-2.876-1.548-4.741-1.548h-1.808l-4.656,26.999H371.307z M398.676,85.769h8.614c0.937,0,2.79-0.301,5.575-0.907   c1.4-0.271,2.625-0.967,3.672-2.087c1.058-1.121,1.706-2.402,1.959-3.856c0.368-2.147-0.025-3.795-1.184-4.946   c-1.156-1.148-3.598-1.722-7.327-1.722h-8.979L398.676,85.769z"
   id="path161"
   style="fill:#000000" />
	<path
   d="M456.11,58.822h62.147l-2.836,16.422h-20.851l-8.646,50.088h-20.44l8.642-50.088h-20.851L456.11,58.822z"
   id="path163"
   style="fill:#000000" />
	<path
   d="M575.804,58.822h20.399l-6.843,39.623c-0.677,3.931-1.924,7.641-3.749,11.133c-1.82,3.489-4.255,6.546-7.311,9.156   c-3.056,2.617-6.099,4.453-9.142,5.51c-4.223,1.481-9.122,2.225-14.689,2.225c-3.219,0-6.69-0.229-10.417-0.682   c-3.728-0.455-6.757-1.354-9.078-2.703c-2.329-1.341-4.341-3.252-6.03-5.73c-1.692-2.479-2.704-5.033-3.033-7.666   c-0.533-4.228-0.521-7.976,0.045-11.242l6.837-39.623h20.399L546.19,99.39c-0.626,3.626-0.114,6.462,1.536,8.501   c1.648,2.041,4.246,3.059,7.796,3.059c3.523,0,6.454-1.004,8.803-3.017c2.348-2.009,3.841-4.856,4.478-8.543L575.804,58.822z"
   id="path165"
   style="fill:#000000" />
	<path
   d="M604.409,125.332l11.477-66.51h34.073c6.32,0,11.053,0.541,14.204,1.63c3.153,1.093,5.497,3.109,7.032,6.053   c1.536,2.952,1.944,6.547,1.211,10.776c-0.636,3.696-1.969,6.878-3.994,9.557c-2.027,2.675-4.557,4.845-7.579,6.505   c-1.931,1.061-4.478,1.939-7.639,2.637c2.297,0.816,3.93,1.634,4.899,2.448c0.657,0.546,1.547,1.71,2.667,3.5   c1.116,1.783,1.838,3.164,2.15,4.132l6.575,19.272h-23.101l-7.419-20.326c-0.931-2.63-1.869-4.336-2.816-5.125   c-1.295-1.029-2.88-1.548-4.744-1.548h-1.805l-4.658,26.999H604.409z M631.771,85.769h8.616c0.933,0,2.794-0.301,5.573-0.907   c1.403-0.271,2.629-0.967,3.68-2.087c1.049-1.121,1.704-2.402,1.951-3.856c0.374-2.147-0.02-3.795-1.177-4.946   c-1.158-1.148-3.6-1.722-7.331-1.722h-8.98L631.771,85.769z"
   id="path167"
   style="fill:#000000" />
	<path
   d="M694.213,58.822H749l-2.453,14.2h-34.299l-1.823,10.57h31.816l-2.343,13.561h-31.817l-2.26,13.117h35.291l-2.596,15.062   h-55.785L694.213,58.822z"
   id="path169"
   style="fill:#000000" />
</g>

<g
   id="g227"
   style="fill:#000000">
	<g
   id="g201"
   style="fill:#000000">
		<path
   d="M152.361,90.517l-17.29-80.414c18.472,8.815,33.49,23.472,42.851,41.426L152.361,90.517z"
   id="path199"
   style="fill:#000000" />
	</g>
	<g
   id="g205"
   style="fill:#000000">
		<path
   d="M99.238,152.735l80.223-17.334c-8.794,18.519-23.417,33.572-41.328,42.957L99.238,152.735z"
   id="path203"
   style="fill:#000000" />
	</g>
	<g
   id="g209"
   style="fill:#000000">
		<path
   d="M57.206,138.994l68.954,44.606c-19.286,6.861-40.24,7.14-59.524,1.08L57.206,138.994z"
   id="path207"
   style="fill:#000000" />
	</g>
	<g
   id="g213"
   style="fill:#000000">
		<path
   d="M37.178,99.484l17.289,80.417c-18.472-8.817-33.488-23.474-42.851-41.427L37.178,99.484z"
   id="path211"
   style="fill:#000000" />
	</g>
	<g
   id="g217"
   style="fill:#000000">
		<path
   d="M50.884,57.349l-44.499,69.12c-6.844-19.334-7.122-40.336-1.078-59.671L50.884,57.349z"
   id="path215"
   style="fill:#000000" />
	</g>
	<g
   id="g221"
   style="fill:#000000">
		<path
   d="M90.296,37.271L10.077,54.602c8.798-18.521,23.414-33.575,41.329-42.959L90.296,37.271z"
   id="path219"
   style="fill:#000000" />
	</g>
	<g
   id="g225"
   style="fill:#000000">
		<path
   d="M132.328,51.005L63.38,6.4c19.284-6.862,40.238-7.143,59.522-1.085L132.328,51.005z"
   id="path223"
   style="fill:#000000" />
	</g>
</g>
<path
   id="text251"
   style="font-style:normal;font-weight:normal;font-size:40px;line-height:1.25;font-family:sans-serif;white-space:pre;shape-inside:url(#rect253);fill:#000000;fill-opacity:1;stroke:none;"
   d="M 241.89648 140.79492 L 241.89648 169.95508 L 260.04102 169.95508 L 260.04102 166.63477 L 245.8418 166.63477 L 245.8418 140.79492 L 241.89648 140.79492 z M 276.89648 140.79492 L 276.89648 169.95508 L 280.8418 169.95508 L 280.8418 140.79492 L 276.89648 140.79492 z M 301.4082 140.79492 L 301.4082 169.95508 L 305.23633 169.95508 L 305.23633 145.56055 L 318.16602 169.95508 L 323.47852 169.95508 L 323.47852 140.79492 L 319.65039 140.79492 L 319.65039 165.18945 L 306.7207 140.79492 L 301.4082 140.79492 z M 343.5957 140.79492 L 343.5957 158.99805 C 343.5957 162.80013 344.5332 165.67122 346.4082 167.61133 C 348.29622 169.55143 351.08268 170.52148 354.76758 170.52148 C 358.43945 170.52148 361.21289 169.55143 363.08789 167.61133 C 364.97591 165.67122 365.91992 162.80013 365.91992 158.99805 L 365.91992 140.79492 L 361.95508 140.79492 L 361.95508 158.50977 C 361.95508 161.63477 361.38867 163.88737 360.25586 165.26758 C 359.12305 166.63477 357.29362 167.31836 354.76758 167.31836 C 352.22852 167.31836 350.39258 166.63477 349.25977 165.26758 C 348.12695 163.88737 347.56055 161.63477 347.56055 158.50977 L 347.56055 140.79492 L 343.5957 140.79492 z M 384.63086 140.79492 L 393.71289 154.38867 L 383.30273 169.95508 L 387.56055 169.95508 L 395.82227 157.55273 L 404.02539 169.95508 L 408.26367 169.95508 L 398.26367 154.79883 L 407.63867 140.79492 L 403.40039 140.79492 L 396.11523 151.63477 L 388.86914 140.79492 L 384.63086 140.79492 z " /></svg>
